# xmcd CD database file
#
# Track frame offsets:
#	150
#	24616
#	52190
#	99298
#	126628
#	152540
#	186980
#	216914
#	252606
#	299441
#
# Disc length: 4242 seconds
#
# Revision: 1
# Processed by: cddbd v1.5.1PL2 Copyright (c) Steve Scherf et al.
# Submitted via: CDex 1.51
#
DISCID=9d10900a
DTITLE=Mike Barone Big Band - Live 2005!
DYEAR=2005
DGENRE=Jazz
TTITLE0=When You're Smiling
TTITLE1=As Time Goes By
TTITLE2=How Deep Is The Ocean
TTITLE3=Grungy Bungee
TTITLE4=Darktown Strutters Ball
TTITLE5=Cette Chose
TTITLE6=Love Locked Out
TTITLE7=Road Kill
TTITLE8=Lament
TTITLE9=Friends
EXTD=YEAR: 2005
EXTT0=
EXTT1=
EXTT2=
EXTT3=
EXTT4=
EXTT5=
EXTT6=
EXTT7=
EXTT8=
EXTT9=
PLAYORDER=
